<?xml version="1.0" encoding="UTF-8"?><!DOCTYPE svg PUBLIC "-//W3C//DTD SVG 1.1//EN" "http://www.w3.org/Graphics/SVG/1.1/DTD/svg11.dtd"><svg xmlns="http://www.w3.org/2000/svg" width="512pt" height="512pt" viewBox="0 0 512 512" version="1.1">
<g id="#ffffffff">
<path fill="#ffffff" opacity="1.00" d=" M 254.35 0.00 L 257.41 0.00 C 261.09 0.94 262.94 4.27 264.03 7.62 C 300.58 8.93 336.80 19.12 368.43 37.52 C 383.14 46.03 396.86 56.25 409.30 67.83 C 411.16 67.10 412.99 66.19 415.01 65.95 C 419.21 65.69 423.10 69.78 422.49 73.97 C 422.10 75.77 421.36 77.45 420.71 79.16 C 439.84 99.89 455.33 124.05 465.56 150.37 C 474.85 173.95 479.87 199.12 480.87 224.42 C 482.79 225.33 484.92 225.97 486.51 227.44 C 489.12 230.14 489.12 234.88 486.50 237.56 C 484.90 239.01 482.78 239.67 480.87 240.58 C 479.43 278.79 468.25 316.62 448.31 349.27 C 440.41 362.38 431.01 374.53 420.71 385.84 C 421.36 387.55 422.12 389.24 422.50 391.04 C 423.08 395.23 419.20 399.30 415.01 399.05 C 413.00 398.79 411.17 397.90 409.32 397.18 C 401.97 404.01 394.16 410.32 386.02 416.18 C 394.19 436.70 402.47 457.18 410.40 477.79 C 412.38 482.93 414.51 488.47 413.01 494.05 C 411.20 503.75 402.37 511.26 392.60 512.00 L 118.94 512.00 C 109.35 510.99 100.75 503.58 98.97 494.01 C 97.78 489.43 98.95 484.74 100.61 480.45 C 108.78 458.90 117.48 437.56 125.99 416.15 C 117.85 410.29 110.04 403.98 102.68 397.18 C 100.83 397.91 99.00 398.79 97.00 399.04 C 92.79 399.31 88.90 395.23 89.50 391.03 C 89.87 389.22 90.63 387.54 91.29 385.83 C 81.13 374.73 71.89 362.77 64.06 349.90 C 43.89 317.10 32.56 279.03 31.13 240.57 C 29.20 239.67 27.06 239.01 25.46 237.53 C 22.88 234.84 22.88 230.12 25.48 227.44 C 27.07 225.98 29.20 225.32 31.12 224.42 C 31.77 209.47 33.65 194.55 37.16 179.99 C 45.99 142.40 65.04 107.43 91.30 79.17 C 89.66 75.80 88.26 71.37 91.37 68.35 C 94.29 64.79 99.17 65.98 102.70 67.83 C 111.99 59.26 121.90 51.35 132.47 44.41 C 166.59 21.76 207.07 9.08 247.96 7.62 C 249.04 4.34 250.83 1.10 254.35 0.00 M 112.99 78.86 C 150.13 116.04 187.34 153.16 224.45 190.37 C 231.57 185.25 239.84 181.84 248.50 180.45 C 248.49 127.84 248.51 75.24 248.49 22.63 C 198.49 24.25 149.50 44.70 112.99 78.86 M 263.51 22.64 C 263.49 75.24 263.51 127.84 263.49 180.44 C 272.15 181.83 280.42 185.20 287.50 190.37 C 324.71 153.24 361.85 116.04 399.03 78.88 C 362.53 44.67 313.53 24.23 263.51 22.64 M 46.13 225.00 C 64.49 225.00 82.85 225.00 101.21 225.00 C 103.08 217.65 106.96 210.74 112.83 205.86 C 123.09 196.88 138.76 194.94 150.92 201.09 C 160.45 205.67 167.32 214.80 169.79 225.00 C 180.70 224.97 191.61 225.06 202.52 224.95 C 205.78 216.74 208.60 208.20 213.90 201.00 C 176.73 163.82 139.55 126.65 102.37 89.47 C 68.18 125.98 47.74 174.98 46.13 225.00 M 298.11 201.00 C 303.43 208.22 306.18 216.82 309.57 225.02 C 315.80 224.98 322.02 225.02 328.25 224.98 C 330.04 217.85 333.74 211.15 339.32 206.32 C 349.39 197.14 365.00 194.89 377.28 200.78 C 387.12 205.26 394.29 214.55 396.80 225.00 C 397.60 225.00 399.21 224.99 400.01 224.99 C 401.17 221.09 402.50 217.20 404.75 213.78 C 411.79 202.42 425.70 195.87 438.95 197.82 C 450.13 199.15 459.98 206.47 465.42 216.20 C 461.78 169.26 441.81 123.86 409.64 89.48 C 372.46 126.65 335.29 163.83 298.11 201.00 M 248.55 195.75 C 236.94 197.99 226.71 206.16 221.92 216.95 C 219.45 222.57 217.35 228.33 215.02 234.00 C 181.37 318.36 147.44 402.61 114.18 487.13 C 111.72 492.08 116.78 497.69 121.94 496.99 C 211.29 497.01 300.65 497.00 390.01 496.99 C 395.15 497.69 400.14 492.22 397.92 487.23 C 392.77 473.15 386.99 459.31 381.50 445.37 C 351.48 370.13 321.31 294.96 291.29 219.72 C 288.55 212.53 283.78 206.07 277.41 201.69 C 269.14 195.86 258.45 193.75 248.55 195.75 M 116.80 224.94 C 129.26 225.04 141.73 225.03 154.20 224.94 C 150.79 217.63 143.32 212.14 135.05 212.53 C 127.08 212.51 120.11 217.93 116.80 224.94 M 343.82 224.93 C 356.28 225.05 368.75 225.03 381.22 224.94 C 377.89 217.92 370.91 212.50 362.93 212.53 C 354.67 212.15 347.22 217.63 343.82 224.93 M 415.61 224.94 C 428.06 225.03 440.53 225.04 452.99 224.94 C 449.61 217.68 442.22 212.21 434.01 212.53 C 426.00 212.44 418.91 217.86 415.61 224.94 M 46.13 240.00 C 47.78 290.02 68.11 339.05 102.28 375.60 C 103.10 374.79 103.91 373.97 104.73 373.16 C 102.64 369.35 100.74 365.36 99.96 361.06 C 97.25 348.13 102.69 333.99 113.36 326.21 C 121.98 319.63 133.63 317.68 144.03 320.55 C 137.85 314.29 133.83 305.83 133.56 296.98 C 132.81 283.62 140.61 270.35 152.55 264.37 C 163.03 258.84 176.11 259.45 186.35 265.24 C 189.75 256.84 193.10 248.42 196.46 240.00 C 187.57 239.99 178.68 240.00 169.78 240.00 C 167.93 247.15 164.23 253.89 158.59 258.74 C 148.53 267.83 133.01 270.08 120.78 264.22 C 110.93 259.75 103.71 250.47 101.22 240.00 C 82.85 240.00 64.49 240.00 46.13 240.00 M 116.80 240.06 C 120.23 247.36 127.69 252.85 135.96 252.45 C 143.92 252.46 150.88 247.06 154.20 240.05 C 141.74 239.97 129.27 239.96 116.80 240.06 M 315.54 240.00 C 318.91 248.50 322.35 256.96 325.68 265.47 C 332.20 265.35 338.85 266.32 344.64 269.47 C 355.88 275.19 363.44 287.40 363.49 300.03 C 363.71 307.97 360.81 315.70 356.20 322.08 C 358.50 324.38 360.80 326.69 363.11 328.98 C 369.23 327.20 375.79 326.62 382.04 328.12 C 393.83 330.70 403.86 339.87 407.54 351.36 C 409.97 358.48 409.65 366.26 407.57 373.42 C 408.27 374.15 408.98 374.88 409.70 375.61 C 441.87 341.20 461.76 295.74 465.42 248.79 C 461.35 255.76 455.34 261.73 447.78 264.77 C 436.22 269.74 422.07 267.72 412.36 259.72 C 406.11 254.81 401.97 247.66 400.01 240.02 C 399.21 240.01 397.61 240.00 396.80 239.99 C 394.14 251.21 386.00 261.02 375.15 265.12 C 363.46 269.76 349.37 267.40 339.88 259.14 C 333.98 254.26 330.12 247.33 328.20 239.98 C 323.98 240.00 319.76 240.00 315.54 240.00 M 343.82 240.07 C 347.14 247.06 354.10 252.45 362.04 252.46 C 370.32 252.84 377.78 247.36 381.22 240.06 C 368.75 239.97 356.29 239.95 343.82 240.07 M 415.61 240.05 C 419.04 247.41 426.58 252.91 434.91 252.45 C 442.81 252.40 449.66 247.01 453.01 240.09 C 440.54 239.92 428.07 239.98 415.61 240.05 M 157.65 278.71 C 149.72 283.63 146.32 294.41 150.00 302.99 C 152.20 308.76 157.34 312.81 163.02 314.88 C 165.46 312.35 168.46 310.13 169.78 306.75 C 173.43 297.68 176.99 288.57 180.69 279.52 C 174.03 274.75 164.55 274.04 157.65 278.71 M 331.82 280.60 C 335.00 288.88 338.43 297.06 341.61 305.34 C 342.42 307.65 343.83 309.67 345.40 311.52 C 348.49 305.92 349.64 299.01 347.05 292.99 C 344.53 286.54 338.46 282.11 331.82 280.60 M 120.13 340.12 C 114.28 345.71 112.96 354.69 115.72 362.12 C 124.58 353.35 133.40 344.53 142.17 335.66 C 134.71 332.92 125.72 334.23 120.13 340.12 M 376.46 342.17 C 382.26 348.30 388.28 354.24 394.35 360.10 C 393.38 355.58 391.62 351.04 388.13 347.87 C 385.02 344.67 380.71 343.14 376.46 342.17 M 126.37 372.85 C 132.04 374.74 138.26 374.60 143.69 372.02 C 146.72 363.34 151.21 355.14 153.33 346.17 C 143.99 354.69 135.30 363.91 126.37 372.85 M 359.92 350.96 C 364.06 361.42 368.33 371.82 372.43 382.29 C 378.57 382.58 384.50 380.27 388.95 376.08 C 379.38 366.52 369.88 356.89 360.22 347.42 C 359.84 348.56 359.20 349.79 359.92 350.96 M 112.96 386.34 C 119.00 391.75 125.20 397.00 131.74 401.80 C 133.41 397.61 135.05 393.42 136.80 389.27 C 129.25 389.56 121.76 387.66 115.30 383.75 C 114.52 384.61 113.74 385.47 112.96 386.34 M 378.37 397.11 C 379.01 398.67 379.65 400.24 380.30 401.80 C 384.10 398.90 387.88 395.97 391.52 392.88 C 387.32 394.82 382.93 396.31 378.37 397.11 Z"/>
<path fill="#ffffff" opacity="1.00" d=" M 391.24 132.27 C 407.72 128.41 425.82 138.48 431.35 154.43 C 437.19 169.42 430.84 187.75 417.14 196.10 C 408.87 201.34 398.35 202.87 388.94 200.12 C 377.46 196.94 367.97 187.45 364.84 175.94 C 361.15 163.35 365.40 148.92 375.32 140.33 C 379.81 136.34 385.35 133.52 391.24 132.27 M 392.35 147.47 C 385.46 149.67 380.00 155.85 378.84 163.01 C 377.41 170.50 380.78 178.59 387.09 182.86 C 392.89 187.05 401.01 187.63 407.39 184.40 C 413.64 181.36 418.02 174.84 418.45 167.90 C 419.04 160.76 415.38 153.52 409.34 149.69 C 404.39 146.44 397.97 145.64 392.35 147.47 Z"/>
<path fill="#ffffff" opacity="1.00" d=" M 235.75 222.77 C 239.75 214.59 248.92 209.07 258.08 210.11 C 269.07 210.97 278.46 220.96 278.48 232.02 C 278.77 238.68 275.55 244.93 270.91 249.53 C 283.96 282.31 297.12 315.04 310.18 347.82 C 317.13 348.03 324.15 351.02 328.16 356.88 C 331.40 361.71 332.92 367.42 335.23 372.70 C 337.34 378.18 339.75 383.55 341.68 389.10 C 344.89 398.34 340.61 409.39 332.09 414.16 C 324.20 418.95 313.28 417.73 306.62 411.35 C 301.72 406.91 300.12 400.27 297.60 394.41 C 295.14 387.91 292.18 381.59 290.03 374.99 C 287.68 367.22 290.82 358.95 296.27 353.29 C 283.08 320.62 270.11 287.86 256.98 255.16 C 250.67 254.99 244.25 252.86 239.87 248.15 C 233.37 241.65 231.62 230.99 235.75 222.77 M 253.36 225.49 C 248.64 227.20 246.86 233.84 250.43 237.50 C 253.93 241.74 261.56 240.20 263.09 234.90 C 265.31 229.30 258.90 223.05 253.36 225.49 M 308.35 363.46 C 304.96 364.73 303.36 368.92 304.90 372.18 C 308.15 380.53 311.53 388.83 314.87 397.15 C 315.91 400.48 319.49 403.01 323.01 401.87 C 326.80 400.90 328.80 396.32 327.10 392.82 C 323.72 384.30 320.36 375.75 316.84 367.28 C 315.66 363.93 311.64 362.05 308.35 363.46 Z"/>
<path fill="#ffffff" opacity="1.00" d=" M 89.20 260.28 C 103.94 256.91 120.21 264.42 127.22 277.80 C 132.63 287.57 132.88 299.97 127.86 309.95 C 123.25 319.42 114.16 326.54 103.84 328.70 C 88.60 332.26 71.81 324.01 65.11 309.93 C 58.23 296.47 61.53 278.79 72.84 268.76 C 77.42 264.55 83.12 261.57 89.20 260.28 M 90.37 275.46 C 83.47 277.66 77.99 283.83 76.82 291.00 C 75.39 298.48 78.75 306.57 85.04 310.86 C 91.07 315.21 99.56 315.66 106.04 312.05 C 112.49 308.62 116.70 301.41 116.48 294.10 C 116.40 287.30 112.55 280.74 106.70 277.31 C 101.85 274.39 95.75 273.73 90.37 275.46 Z"/>
<path fill="#ffffff" opacity="1.00" d=" M 392.17 260.29 C 408.65 256.40 426.78 266.44 432.34 282.40 C 438.09 297.18 432.06 315.26 418.70 323.74 C 410.38 329.26 399.65 330.91 390.06 328.17 C 378.91 325.09 369.59 316.13 366.18 305.07 C 362.01 292.45 365.94 277.66 375.83 268.78 C 380.40 264.57 386.09 261.59 392.17 260.29 M 393.31 275.49 C 386.44 277.70 381.00 283.87 379.84 291.01 C 378.35 298.74 382.02 307.10 388.68 311.27 C 395.28 315.69 404.54 315.50 410.99 310.86 C 418.05 306.04 421.30 296.44 418.53 288.33 C 415.46 278.09 403.42 271.90 393.31 275.49 Z"/>
</g>
</svg>