<?xml version="1.0" encoding="UTF-8"?><!DOCTYPE svg PUBLIC "-//W3C//DTD SVG 1.1//EN" "http://www.w3.org/Graphics/SVG/1.1/DTD/svg11.dtd"><svg xmlns="http://www.w3.org/2000/svg" width="512pt" height="512pt" viewBox="0 0 512 512" version="1.1">
<g id="#ffffffff">
<path fill="#ffffff" opacity="1.00" d=" M 76.65 64.41 C 74.36 59.17 80.39 53.24 85.59 55.67 C 89.51 58.00 92.23 61.85 95.58 64.88 C 98.98 61.84 101.68 57.90 105.68 55.62 C 110.93 53.31 116.88 59.37 114.41 64.58 C 112.11 68.50 108.25 71.20 105.23 74.54 C 108.25 77.85 112.04 80.54 114.38 84.41 C 116.99 89.70 110.79 95.92 105.49 93.37 C 101.61 91.02 98.91 87.19 95.56 84.20 C 92.23 87.22 89.52 91.05 85.62 93.38 C 80.44 95.84 74.37 89.94 76.64 84.69 C 78.89 80.66 82.88 77.95 85.92 74.54 C 82.89 71.12 78.92 68.42 76.65 64.41 Z"/>
<path fill="#ffffff" opacity="1.00" d=" M 315.62 64.50 C 313.21 59.24 319.31 53.21 324.55 55.68 C 328.44 58.02 331.17 61.84 334.50 64.88 C 337.86 61.87 340.57 58.00 344.48 55.67 C 349.71 53.23 355.79 59.25 353.38 64.50 C 351.09 68.46 347.21 71.18 344.17 74.52 C 347.19 77.85 350.99 80.57 353.34 84.45 C 355.88 89.73 349.73 95.90 344.44 93.37 C 340.55 91.03 337.85 87.21 334.52 84.19 C 331.18 87.20 328.47 91.02 324.58 93.37 C 319.45 95.83 313.39 90.06 315.52 84.82 C 317.72 80.70 321.80 77.99 324.85 74.52 C 321.81 71.15 317.93 68.45 315.62 64.50 Z"/>
<path fill="#ffffff" opacity="1.00" d=" M 186.22 68.23 C 198.73 65.25 212.32 74.25 214.55 86.88 C 217.32 99.01 208.89 112.15 196.78 114.81 C 188.21 116.98 178.64 113.85 172.98 107.07 C 167.36 100.63 165.70 91.06 168.83 83.11 C 171.62 75.63 178.40 69.83 186.22 68.23 M 187.25 82.16 C 180.05 84.74 178.72 95.60 185.11 99.83 C 190.90 104.51 200.59 100.40 201.26 92.99 C 202.65 85.54 194.12 78.94 187.25 82.16 Z"/>
<path fill="#ffffff" opacity="1.00" d=" M 393.22 91.21 C 398.54 88.90 404.86 94.22 403.52 99.85 C 402.73 105.55 394.96 108.21 390.84 104.21 C 386.49 100.70 387.91 92.96 393.22 91.21 Z"/>
<path fill="#ffffff" opacity="1.00" d=" M 284.23 125.26 C 289.54 123.18 295.65 128.48 294.29 134.03 C 293.47 139.67 285.78 142.33 281.67 138.37 C 277.17 134.84 278.73 126.84 284.23 125.26 Z"/>
<path fill="#ffffff" opacity="1.00" d=" M 113.70 146.69 C 124.93 137.12 141.00 133.74 155.15 137.89 C 162.03 139.77 168.22 143.59 173.55 148.27 C 181.49 140.88 192.08 136.41 202.94 136.17 C 219.54 135.51 236.05 144.91 243.91 159.54 C 279.94 161.69 315.96 163.82 351.98 165.90 C 353.52 166.02 355.07 166.16 356.56 166.63 C 383.81 176.61 414.81 180.36 442.61 170.34 C 446.47 169.14 449.91 166.60 453.96 166.06 C 457.64 165.97 460.89 169.29 460.75 172.96 C 460.88 200.30 460.73 227.65 460.83 254.99 C 460.80 257.41 460.90 260.16 459.05 262.01 C 436.26 284.65 415.86 309.86 399.67 337.65 C 388.79 356.51 379.88 376.74 375.52 398.14 C 372.39 413.87 371.75 430.31 375.41 446.00 C 375.90 448.40 376.61 451.11 375.20 453.36 C 373.86 455.93 370.87 457.00 368.11 456.81 C 320.06 456.79 272.02 456.80 223.97 456.80 C 220.39 457.20 216.64 454.64 216.31 450.93 C 216.15 447.89 216.61 444.86 216.89 441.84 C 219.69 417.19 225.35 392.85 234.00 369.59 C 224.95 377.31 212.93 381.54 201.02 380.56 C 190.79 379.93 181.03 375.45 173.50 368.56 C 165.02 376.39 153.57 380.96 141.99 380.67 C 127.71 380.57 113.80 373.11 105.68 361.40 C 101.41 355.46 98.89 348.43 97.73 341.25 C 86.17 370.39 87.45 403.19 95.38 433.08 C 97.00 438.26 90.86 443.28 86.07 440.85 C 82.16 439.24 81.77 434.55 80.76 431.00 C 73.07 398.96 72.95 363.97 86.31 333.38 C 70.97 329.76 57.87 317.84 53.28 302.71 C 48.36 287.52 52.40 270.01 63.35 258.43 C 55.57 249.96 50.97 238.59 51.24 227.05 C 51.30 213.65 57.79 200.51 68.31 192.23 C 76.44 185.62 86.92 182.21 97.36 182.28 C 97.16 168.76 103.21 155.28 113.70 146.69 M 115.04 166.06 C 111.58 172.49 109.63 180.46 112.56 187.45 C 121.74 192.21 130.07 198.40 138.11 204.84 C 151.02 215.40 163.15 227.01 173.47 240.14 C 184.35 226.25 197.38 214.18 211.08 203.13 C 212.73 190.73 214.40 178.34 216.02 165.95 C 216.29 163.68 216.85 161.20 218.84 159.80 C 220.86 158.05 223.70 158.49 226.15 158.31 C 222.06 154.96 217.50 152.05 212.30 150.80 C 201.27 147.85 188.70 151.44 181.17 160.10 C 179.06 162.55 176.71 165.68 173.04 165.19 C 170.03 165.21 168.11 162.71 166.33 160.67 C 161.04 154.39 153.14 150.43 144.96 149.89 C 132.95 148.84 120.81 155.51 115.04 166.06 M 215.44 273.80 C 229.40 273.79 243.37 273.82 257.33 273.78 C 259.45 269.73 261.22 265.50 263.57 261.58 C 264.99 258.97 268.14 258.27 270.88 258.39 C 293.26 258.43 315.65 258.36 338.03 258.42 C 342.48 258.04 346.40 262.60 345.10 266.94 C 344.50 269.77 341.88 271.39 339.34 272.27 C 330.68 275.45 322.34 279.53 314.54 284.46 C 289.89 299.89 271.12 323.33 258.03 349.05 C 243.13 378.38 234.45 410.62 230.50 443.20 C 273.96 443.20 317.42 443.20 360.88 443.20 C 355.16 409.17 364.90 374.56 380.24 344.31 C 397.31 310.96 420.61 281.00 447.13 254.63 C 447.17 230.85 447.14 207.07 447.15 183.29 C 417.02 194.09 383.40 190.95 353.75 180.13 C 350.62 179.18 347.31 179.39 344.09 179.13 C 305.71 176.85 267.33 174.62 228.95 172.37 C 224.45 206.18 219.93 239.99 215.44 273.80 M 67.66 214.64 C 62.26 226.22 64.90 241.03 74.21 249.84 C 76.57 252.29 80.30 254.19 80.43 258.02 C 80.84 261.75 77.52 264.00 75.10 266.17 C 65.92 274.19 62.52 287.88 66.53 299.34 C 70.76 312.37 84.29 321.85 98.03 320.71 C 104.11 319.41 109.46 315.98 114.62 312.65 C 127.73 303.72 139.59 293.06 150.77 281.83 C 156.31 276.07 161.96 270.30 166.17 263.46 C 165.75 260.04 165.72 256.59 166.09 253.17 C 160.62 244.76 153.48 237.62 146.38 230.59 C 135.28 219.92 123.61 209.67 110.50 201.51 C 105.72 198.79 100.65 195.63 94.93 196.02 C 83.29 196.46 72.36 204.01 67.66 214.64 M 181.46 252.47 C 180.45 255.98 181.54 259.84 180.85 263.47 C 184.12 268.90 188.44 273.59 192.72 278.23 C 202.46 288.52 212.97 298.10 224.18 306.77 C 230.78 311.74 237.57 316.67 245.29 319.75 C 249.89 321.71 254.94 320.50 259.67 319.76 C 266.41 309.89 274.14 300.72 282.69 292.36 C 282.07 285.31 281.08 278.08 277.10 272.04 C 275.87 272.06 274.64 272.07 273.42 272.09 C 271.31 276.12 269.53 280.33 267.21 284.25 C 265.82 286.81 262.76 287.61 260.04 287.47 C 242.70 287.44 225.36 287.51 208.03 287.44 C 203.57 287.81 199.90 283.31 200.97 279.01 C 203.41 260.42 205.94 241.83 208.39 223.23 C 198.64 232.19 188.89 241.44 181.46 252.47 M 292.36 272.06 C 293.45 275.16 294.36 278.33 295.12 281.54 C 299.47 278.20 303.96 275.04 308.58 272.08 C 303.17 272.05 297.76 272.08 292.36 272.06 M 173.50 276.64 C 168.27 283.29 162.58 289.59 156.52 295.51 C 143.41 308.33 129.11 320.10 113.16 329.22 C 110.23 333.09 110.95 338.52 111.98 343.00 C 115.06 356.17 127.41 366.45 140.95 366.98 C 151.21 367.68 161.43 362.78 167.67 354.66 C 170.13 350.81 176.16 350.34 178.88 354.17 C 183.23 359.66 189.07 364.09 195.92 365.89 C 208.31 369.51 222.53 364.45 229.93 353.90 C 234.80 346.96 237.73 337.61 234.45 329.40 C 225.11 324.52 216.61 318.21 208.41 311.61 C 195.68 301.13 183.67 289.65 173.50 276.64 Z"/>
<path fill="#ffffff" opacity="1.00" d=" M 65.45 152.68 C 70.69 150.35 77.03 155.44 75.89 161.05 C 75.26 166.81 67.49 169.72 63.26 165.74 C 58.84 162.29 60.15 154.50 65.45 152.68 Z"/>
<path fill="#ffffff" opacity="1.00" d=" M 233.90 186.93 C 234.05 183.87 236.00 180.86 239.11 180.16 C 242.03 179.71 245.00 180.18 247.94 180.30 C 281.31 182.28 314.68 184.25 348.06 186.19 C 349.70 186.29 351.35 186.56 352.92 187.08 C 378.16 195.90 405.66 199.42 432.10 194.54 C 436.05 193.57 440.30 196.84 440.25 200.93 C 440.45 215.63 440.23 230.34 440.35 245.03 C 440.28 247.92 440.71 251.27 438.49 253.53 C 413.09 279.83 390.57 309.26 374.00 341.95 C 360.48 368.85 351.30 398.69 352.52 429.07 C 352.88 433.16 349.12 436.76 345.04 436.32 C 312.36 436.34 279.67 436.34 246.98 436.33 C 242.59 436.84 238.52 432.57 239.59 428.20 C 243.68 405.29 252.21 383.36 262.80 362.71 C 276.54 336.61 294.63 312.36 318.00 294.13 C 328.49 285.95 340.09 279.22 352.44 274.28 C 353.94 266.86 355.42 259.43 356.90 252.01 C 324.86 251.83 292.83 251.79 260.80 251.59 C 258.55 255.75 256.80 260.19 254.26 264.20 C 252.48 266.98 248.90 267.08 245.95 267.03 C 240.63 266.89 235.30 267.23 230.00 266.85 C 226.32 266.47 223.61 262.61 224.34 259.00 C 227.44 234.97 230.73 210.95 233.90 186.93 M 246.75 193.93 C 244.10 213.73 241.46 233.53 238.84 253.33 C 240.78 253.33 242.72 253.33 244.67 253.32 C 246.81 249.23 248.60 244.94 250.99 240.98 C 252.40 238.57 255.33 237.82 257.94 237.93 C 293.32 238.12 328.69 238.22 364.06 238.37 C 366.59 238.28 369.34 239.04 370.78 241.28 C 372.65 243.67 371.87 246.83 371.35 249.54 C 369.13 260.00 367.26 270.54 364.95 280.98 C 364.04 285.35 359.14 286.26 355.67 287.77 C 329.78 298.34 308.71 318.16 292.50 340.57 C 274.98 365.29 261.84 393.22 254.61 422.66 C 282.66 422.67 310.70 422.66 338.75 422.67 C 338.93 394.10 347.30 366.17 359.56 340.56 C 376.34 305.53 400.16 274.31 426.54 246.00 C 426.86 233.75 426.56 221.48 426.67 209.22 C 400.69 212.55 374.16 208.70 349.46 200.36 C 346.09 199.42 342.53 199.63 339.07 199.35 C 308.30 197.51 277.52 195.74 246.75 193.93 Z"/>
</g>
</svg>