<?xml version="1.0" encoding="UTF-8" ?>
<!DOCTYPE svg PUBLIC "-//W3C//DTD SVG 1.1//EN" "http://www.w3.org/Graphics/SVG/1.1/DTD/svg11.dtd">
<svg width="200pt" height="200pt" viewBox="0 0 200 200" version="1.1" xmlns="http://www.w3.org/2000/svg">
<g id="#ffffffff">
<path fill="#ffffff" opacity="1.00" d=" M 53.82 70.03 C 69.17 61.04 84.60 52.19 100.00 43.29 C 115.40 52.20 130.83 61.04 146.19 70.03 C 130.83 78.99 115.40 87.84 100.00 96.72 C 84.60 87.84 69.17 79.00 53.82 70.03 M 81.08 64.08 C 78.93 66.68 80.63 70.14 83.00 71.91 C 84.95 71.01 86.84 69.99 88.73 68.96 C 88.50 67.66 88.28 66.36 88.08 65.06 C 90.74 63.14 94.77 62.38 97.44 64.65 C 98.28 66.88 96.94 69.26 97.48 71.54 C 98.61 73.24 100.46 74.27 102.01 75.54 C 103.77 74.66 105.52 73.78 107.30 72.92 C 106.44 71.64 105.56 70.37 104.72 69.09 C 105.43 66.52 106.72 62.89 103.94 61.09 C 97.02 56.09 86.86 58.32 81.08 64.08 M 106.18 78.66 C 109.24 80.34 112.74 80.49 115.80 78.72 C 117.04 72.80 105.15 72.76 106.18 78.66 Z" />
<path fill="#ffffff" opacity="1.00" d=" M 50.79 75.19 C 54.86 77.01 58.61 79.43 62.48 81.60 C 74.06 88.39 85.80 94.90 97.29 101.83 C 97.16 119.55 97.39 137.27 97.18 154.99 C 83.72 147.45 70.46 139.56 57.07 131.90 C 54.99 130.60 52.60 129.70 50.86 127.92 C 50.66 110.35 50.82 92.77 50.79 75.19 M 64.15 101.59 C 65.95 102.65 67.74 103.71 69.53 104.77 C 70.35 103.88 71.17 103.00 72.00 102.13 C 75.57 103.25 77.57 106.59 77.74 110.21 C 75.93 111.48 73.85 112.26 71.74 112.87 C 70.97 115.10 69.91 117.54 70.70 119.91 C 72.25 121.00 73.92 121.91 75.55 122.88 C 75.96 121.52 76.35 120.16 76.75 118.81 C 79.00 117.92 82.03 117.86 83.35 115.52 C 85.59 106.57 78.16 98.06 69.94 95.67 C 66.29 94.73 64.03 98.40 64.15 101.59 M 75.94 132.46 C 78.35 128.87 74.93 124.95 71.92 123.09 C 67.34 125.59 71.43 133.54 75.94 132.46 Z" />
<path fill="#ffffff" opacity="1.00" d=" M 105.30 100.17 C 119.99 91.95 134.31 83.03 149.21 75.18 C 149.19 92.77 149.33 110.35 149.14 127.93 C 147.94 129.22 146.29 129.94 144.81 130.84 C 130.76 138.75 117.00 147.20 102.82 154.86 C 102.65 137.55 102.76 120.24 102.76 102.94 C 102.45 101.39 104.38 100.96 105.30 100.17 M 116.24 112.87 C 118.40 111.56 121.39 110.82 122.25 108.17 C 123.22 105.51 125.01 102.74 128.07 102.35 C 129.26 103.33 129.70 104.57 129.39 106.07 C 128.09 110.13 124.53 113.00 123.27 117.09 C 122.47 119.27 122.53 121.63 122.42 123.91 C 124.47 122.57 127.81 121.91 128.00 118.97 C 128.49 114.03 132.72 110.87 134.59 106.53 C 135.85 103.79 136.03 100.60 135.29 97.69 C 134.15 95.41 131.30 95.12 129.13 95.91 C 122.06 98.39 116.36 105.22 116.24 112.87 M 122.88 133.84 C 127.06 133.17 129.19 129.02 128.71 125.08 C 124.08 122.56 119.94 130.24 122.88 133.84 Z" />
</g>
<g id="#020202ff">
<path fill="#020202" opacity="1.00" d=" M 92.11 41.25 C 94.71 39.86 97.14 38.03 99.99 37.19 C 102.39 37.82 104.42 39.34 106.59 40.49 C 122.52 49.88 138.63 58.98 154.56 68.38 C 154.84 88.89 154.69 109.42 154.64 129.93 C 154.98 131.65 153.34 132.36 152.16 133.13 C 137.12 141.73 122.13 150.43 107.16 159.15 C 104.80 160.40 102.61 162.10 100.00 162.76 C 97.37 162.10 95.16 160.38 92.79 159.13 C 77.05 149.87 61.13 140.92 45.43 131.60 C 45.21 110.52 45.21 89.44 45.44 68.36 C 60.94 59.24 76.61 50.38 92.11 41.25 M 53.82 70.03 C 69.17 79.00 84.60 87.84 100.00 96.72 C 115.40 87.84 130.83 78.99 146.19 70.03 C 130.83 61.04 115.40 52.20 100.00 43.29 C 84.60 52.19 69.17 61.04 53.82 70.03 M 50.79 75.19 C 50.82 92.77 50.66 110.35 50.86 127.92 C 52.60 129.70 54.99 130.60 57.07 131.90 C 70.46 139.56 83.72 147.45 97.18 154.99 C 97.39 137.27 97.16 119.55 97.29 101.83 C 85.80 94.90 74.06 88.39 62.48 81.60 C 58.61 79.43 54.86 77.01 50.79 75.19 M 105.30 100.17 C 104.38 100.96 102.45 101.39 102.76 102.94 C 102.76 120.24 102.65 137.55 102.82 154.86 C 117.00 147.20 130.76 138.75 144.81 130.84 C 146.29 129.94 147.94 129.22 149.14 127.93 C 149.33 110.35 149.19 92.77 149.21 75.18 C 134.31 83.03 119.99 91.95 105.30 100.17 Z" />
<path fill="#020202" opacity="1.00" d=" M 81.08 64.08 C 86.86 58.32 97.02 56.09 103.94 61.09 C 106.72 62.89 105.43 66.52 104.72 69.09 C 105.56 70.37 106.44 71.64 107.30 72.92 C 105.52 73.78 103.77 74.66 102.01 75.54 C 100.46 74.27 98.61 73.24 97.48 71.54 C 96.94 69.26 98.28 66.88 97.44 64.65 C 94.77 62.38 90.74 63.14 88.08 65.06 C 88.28 66.36 88.50 67.66 88.73 68.96 C 86.84 69.99 84.95 71.01 83.00 71.91 C 80.63 70.14 78.93 66.68 81.08 64.08 Z" />
<path fill="#020202" opacity="1.00" d=" M 106.18 78.66 C 105.15 72.76 117.04 72.80 115.80 78.72 C 112.74 80.49 109.24 80.34 106.18 78.66 Z" />
<path fill="#020202" opacity="1.00" d=" M 64.15 101.59 C 64.03 98.40 66.29 94.73 69.94 95.67 C 78.16 98.06 85.59 106.57 83.35 115.52 C 82.03 117.86 79.00 117.92 76.75 118.81 C 76.35 120.16 75.96 121.52 75.55 122.88 C 73.92 121.91 72.25 121.00 70.70 119.91 C 69.91 117.54 70.97 115.10 71.74 112.87 C 73.85 112.26 75.93 111.48 77.74 110.21 C 77.57 106.59 75.57 103.25 72.00 102.13 C 71.17 103.00 70.35 103.88 69.53 104.77 C 67.74 103.71 65.95 102.65 64.15 101.59 Z" />
<path fill="#020202" opacity="1.00" d=" M 116.24 112.87 C 116.36 105.22 122.06 98.39 129.13 95.91 C 131.30 95.12 134.15 95.41 135.29 97.69 C 136.03 100.60 135.85 103.79 134.59 106.53 C 132.72 110.87 128.49 114.03 128.00 118.97 C 127.81 121.91 124.47 122.57 122.42 123.91 C 122.53 121.63 122.47 119.27 123.27 117.09 C 124.53 113.00 128.09 110.13 129.39 106.07 C 129.70 104.57 129.26 103.33 128.07 102.35 C 125.01 102.74 123.22 105.51 122.25 108.17 C 121.39 110.82 118.40 111.56 116.24 112.87 Z" />
<path fill="#020202" opacity="1.00" d=" M 75.94 132.46 C 71.43 133.54 67.34 125.59 71.92 123.09 C 74.93 124.95 78.35 128.87 75.94 132.46 Z" />
<path fill="#020202" opacity="1.00" d=" M 122.88 133.84 C 119.94 130.24 124.08 122.56 128.71 125.08 C 129.19 129.02 127.06 133.17 122.88 133.84 Z" />
</g>
</svg>
