<?xml version="1.0" encoding="UTF-8"?><!DOCTYPE svg PUBLIC "-//W3C//DTD SVG 1.1//EN" "http://www.w3.org/Graphics/SVG/1.1/DTD/svg11.dtd"><svg xmlns="http://www.w3.org/2000/svg" width="512pt" height="512pt" viewBox="0 0 512 512" version="1.1">
<g id="#f20000ff">
<path fill="#f20000" opacity="1.00" d=" M 252.41 0.00 L 259.55 0.00 C 289.74 0.62 319.87 6.21 348.02 17.19 C 406.75 39.55 456.45 84.50 484.49 140.75 C 502.04 175.23 511.31 213.76 512.00 252.41 L 512.00 259.56 C 511.24 302.23 499.97 344.72 478.86 381.84 C 460.17 415.03 433.97 444.00 402.68 465.73 C 361.03 495.06 310.45 511.19 259.56 512.00 L 252.44 512.00 C 205.87 511.26 159.55 497.73 120.12 472.89 C 94.80 457.02 72.19 436.75 53.93 413.08 C 19.89 369.59 0.82 314.82 0.00 259.62 L 0.00 252.37 C 0.54 235.21 2.05 217.99 6.01 201.26 C 17.72 146.82 47.97 96.59 90.56 60.72 C 135.32 22.53 193.60 0.81 252.41 0.00 M 161.85 57.74 C 153.91 61.71 146.07 65.88 138.59 70.67 C 103.74 92.64 75.51 124.72 57.74 161.86 C 42.12 195.16 34.66 232.32 37.02 269.04 C 38.53 297.07 45.89 324.70 57.76 350.12 C 79.41 395.77 117.26 433.43 163.06 454.76 C 184.52 464.66 207.54 471.41 231.06 473.89 C 243.34 475.46 255.78 475.60 268.16 475.14 C 272.09 474.33 276.15 474.71 280.12 474.15 C 288.15 473.15 296.16 471.86 304.05 470.02 C 319.97 466.61 335.36 461.03 350.12 454.23 C 395.38 432.76 432.76 395.38 454.23 350.12 C 464.61 328.06 471.31 304.32 474.15 280.12 C 475.24 268.06 475.69 255.96 475.14 243.85 C 474.20 239.64 474.92 235.25 473.89 231.06 C 471.38 207.08 464.37 183.67 454.23 161.82 C 448.72 150.65 442.58 139.75 435.28 129.63 C 413.75 98.82 384.00 74.00 350.15 57.74 C 320.48 43.92 287.81 36.29 255.04 36.65 C 222.92 36.60 190.94 44.17 161.85 57.74 Z"/>
<path fill="#f20000" opacity="1.00" d=" M 306.74 167.57 C 310.67 163.01 318.53 162.96 322.54 167.43 C 329.93 174.74 337.29 182.09 344.60 189.48 C 348.73 193.13 349.09 200.29 345.33 204.31 C 328.27 221.61 310.84 238.55 293.94 256.00 C 309.59 272.03 325.51 287.81 341.35 303.66 C 343.48 305.85 345.96 307.85 347.25 310.69 C 348.40 314.50 348.06 319.14 345.04 322.03 C 338.49 328.82 331.70 335.38 325.07 342.11 C 322.94 344.12 320.97 346.57 318.07 347.50 C 314.28 348.34 309.89 347.91 307.16 344.86 C 290.50 328.12 273.74 311.49 256.97 294.86 C 256.34 294.08 255.69 294.02 255.00 294.69 C 238.26 311.41 221.56 328.17 204.80 344.87 C 200.82 349.09 193.33 348.83 189.47 344.58 C 182.72 337.98 176.12 331.23 169.41 324.59 C 167.64 322.74 165.62 320.97 164.63 318.56 C 163.59 314.67 163.95 310.02 167.13 307.19 C 184.17 290.19 201.16 273.14 218.06 256.00 C 201.29 239.05 184.52 222.13 167.62 205.32 C 163.00 201.40 162.94 193.48 167.44 189.45 C 174.73 182.07 182.07 174.74 189.44 167.44 C 193.25 163.07 200.85 162.92 204.83 167.14 C 221.54 183.84 238.23 200.55 254.94 217.25 C 255.66 218.06 256.35 218.00 257.02 217.07 C 273.57 200.55 290.27 184.17 306.74 167.57 Z"/>
</g>
<g id="#ffffffff">
</g>
</svg>