<?xml version="1.0" encoding="UTF-8" ?>
<!DOCTYPE svg PUBLIC "-//W3C//DTD SVG 1.1//EN" "http://www.w3.org/Graphics/SVG/1.1/DTD/svg11.dtd">
<svg width="360pt" height="360pt" viewBox="0 0 360 360" version="1.1" xmlns="http://www.w3.org/2000/svg">
<g id="#eeeeeeff">
</g>
<g id="#ffffffff">
</g>
<g id="#272636ff">
<path fill="#272636" opacity="1.00" d=" M 204.83 45.73 C 212.25 40.62 222.49 40.28 230.46 44.32 C 235.83 46.90 239.89 51.51 242.91 56.55 C 242.81 57.12 242.63 58.24 242.54 58.80 C 243.84 61.65 247.93 64.91 245.05 68.01 C 243.94 69.25 241.50 70.42 240.14 68.94 C 235.54 64.45 233.36 57.84 228.02 54.02 C 221.71 50.14 212.16 49.79 207.26 56.14 L 208.87 56.24 C 208.23 56.67 207.62 57.11 206.99 57.54 C 205.79 57.73 204.43 57.52 203.42 58.36 C 183.48 72.49 163.57 86.68 143.54 100.67 C 138.92 104.46 133.62 107.35 129.15 111.32 L 130.88 111.41 C 130.67 111.55 130.25 111.82 130.03 111.95 C 124.37 112.60 120.66 117.34 116.10 120.23 C 112.77 122.88 108.10 124.29 106.33 128.50 C 106.20 128.63 105.95 128.90 105.83 129.03 L 106.74 129.95 C 107.05 130.25 107.68 130.86 107.99 131.17 C 159.99 130.84 212.00 131.12 264.01 131.02 C 270.19 130.87 276.42 131.70 282.57 130.71 C 282.02 130.48 280.92 130.03 280.38 129.81 L 281.93 129.42 C 281.59 128.89 280.89 127.84 280.55 127.31 C 281.00 127.46 281.90 127.76 282.35 127.90 C 280.34 124.55 278.33 121.19 275.91 118.11 C 269.64 110.20 264.04 101.80 258.14 93.61 C 255.98 90.47 252.87 87.77 251.95 83.95 C 251.98 81.66 254.16 80.14 254.67 77.94 C 256.96 77.49 259.40 78.29 260.66 80.34 C 269.63 92.75 278.38 105.32 287.51 117.62 C 287.82 118.04 288.44 118.89 288.75 119.31 C 289.43 120.34 290.14 121.35 290.84 122.38 C 290.74 122.93 290.53 124.04 290.43 124.60 C 292.28 127.34 294.37 129.96 297.27 131.66 C 297.88 132.19 298.51 132.72 299.14 133.23 C 298.50 133.59 297.87 133.95 297.25 134.32 C 308.54 138.83 315.81 151.00 315.72 163.02 C 315.57 184.34 315.99 205.66 315.68 226.99 C 315.70 241.98 315.98 256.97 315.69 271.96 C 315.44 279.58 316.61 287.47 313.99 294.82 C 313.01 298.20 310.57 301.17 310.63 304.83 C 310.36 305.24 310.08 305.66 309.80 306.07 C 309.33 305.95 308.39 305.72 307.93 305.60 C 299.40 315.96 284.86 317.87 272.34 316.09 C 271.15 314.81 270.13 313.39 269.01 312.06 C 270.28 310.77 270.88 308.18 273.04 308.16 C 280.01 307.75 287.93 309.11 294.01 304.90 C 297.00 302.92 299.62 300.46 302.15 297.93 C 305.63 296.03 306.91 291.85 307.02 288.13 C 307.09 283.74 306.87 279.36 306.93 274.97 C 306.86 270.45 307.65 265.72 305.71 261.47 L 305.64 260.55 C 305.64 260.25 305.63 259.65 305.63 259.34 C 305.60 256.17 305.54 252.99 305.74 249.82 L 305.77 249.39 C 306.91 245.00 306.40 240.46 306.46 235.99 C 306.48 226.33 306.43 216.67 306.49 207.01 C 306.59 201.04 305.12 195.13 305.70 189.15 L 305.75 188.52 C 307.15 183.46 306.40 178.17 306.56 172.99 C 306.40 167.48 306.99 161.91 306.09 156.45 C 304.49 151.80 302.17 146.89 297.71 144.36 C 291.90 140.57 284.75 139.79 277.98 139.73 C 221.02 139.87 164.06 139.64 107.11 139.85 C 106.82 140.09 106.23 140.58 105.93 140.82 C 105.70 141.06 105.24 141.52 105.00 141.76 C 104.72 142.09 104.17 142.76 103.89 143.10 C 103.62 195.70 103.94 248.32 103.73 300.92 C 103.67 302.67 103.92 304.42 104.80 305.97 L 105.12 306.50 C 106.32 307.07 107.60 307.45 108.95 307.41 C 156.33 307.36 203.72 307.34 251.11 307.42 C 253.02 309.14 253.58 311.46 253.26 313.96 C 251.91 314.63 250.60 315.62 249.02 315.58 C 231.71 315.90 214.39 315.56 197.07 315.60 C 185.71 315.77 174.34 315.76 162.97 315.60 C 145.32 315.57 127.67 315.90 110.03 315.55 C 105.64 315.28 101.34 317.09 96.98 316.20 C 85.73 314.42 73.77 317.85 63.00 313.23 C 57.32 311.45 53.50 306.62 49.65 302.39 C 46.05 296.30 43.91 289.14 44.27 282.02 C 44.24 242.01 44.22 202.00 44.31 162.00 C 44.66 153.80 48.00 145.72 54.05 140.09 C 57.87 135.72 63.47 133.74 68.90 132.21 C 71.66 131.47 72.86 128.58 74.48 126.51 C 84.68 111.12 95.85 96.41 106.11 81.06 C 112.96 72.65 117.52 61.87 127.21 56.16 C 132.59 52.99 138.99 54.32 144.82 53.00 C 148.53 53.64 151.72 55.82 154.75 57.94 C 159.44 61.34 164.44 64.32 169.07 67.83 C 170.03 68.50 171.46 69.50 172.55 68.46 C 183.36 60.95 194.00 53.21 204.83 45.73 M 125.28 70.28 C 111.47 90.02 97.96 109.97 84.12 129.70 C 85.35 129.66 86.58 129.43 87.53 128.59 C 104.36 116.43 121.48 104.65 138.38 92.57 C 145.90 87.17 153.69 82.11 160.96 76.39 C 155.89 72.73 150.65 69.31 145.49 65.79 C 138.96 61.47 129.54 63.88 125.28 70.28 M 60.30 148.28 C 60.12 148.37 59.78 148.55 59.60 148.65 C 58.53 150.15 57.38 151.60 56.39 153.16 C 53.05 155.76 53.62 160.32 53.54 164.06 C 53.50 205.05 53.42 246.04 53.59 287.03 C 53.19 291.32 55.14 295.90 58.90 298.13 C 61.82 301.06 64.81 304.46 69.20 304.92 L 69.31 305.59 C 69.51 305.57 69.91 305.52 70.12 305.49 C 78.01 307.06 86.21 305.97 94.23 306.25 C 94.12 251.33 94.05 196.41 94.26 141.49 C 87.22 141.29 80.16 141.26 73.11 141.52 C 68.31 142.18 63.14 144.14 60.30 148.28 Z" />
</g>
<g id="#050203ff">
<path fill="#050203" opacity="1.00" d=" M 207.26 56.14 C 212.16 49.79 221.71 50.14 228.02 54.02 C 233.36 57.84 235.54 64.45 240.14 68.94 C 241.50 70.42 243.94 69.25 245.05 68.01 C 247.93 64.91 243.84 61.65 242.54 58.80 C 242.63 58.24 242.81 57.12 242.91 56.55 C 244.44 59.09 246.41 61.37 247.61 64.09 C 248.37 66.22 246.87 68.13 246.19 70.03 C 244.74 70.49 243.30 70.98 241.87 71.47 C 235.98 69.47 234.40 62.65 230.47 58.45 C 225.47 51.85 215.09 50.71 208.87 56.24 L 207.26 56.14 Z" />
<path fill="#050203" opacity="1.00" d=" M 105.93 140.82 C 106.23 140.58 106.82 140.09 107.11 139.85 C 164.06 139.64 221.02 139.87 277.98 139.73 C 284.75 139.79 291.90 140.57 297.71 144.36 C 302.17 146.89 304.49 151.80 306.09 156.45 C 306.99 161.91 306.40 167.48 306.56 172.99 C 306.40 178.17 307.15 183.46 305.75 188.52 C 305.76 179.67 305.78 170.81 305.71 161.96 C 305.78 153.17 299.56 144.42 290.89 142.36 L 290.85 142.35 C 290.23 142.17 288.99 141.82 288.37 141.65 C 286.28 141.08 284.14 140.75 281.98 140.75 C 223.30 140.84 164.61 140.70 105.93 140.82 Z" />
<path fill="#050203" opacity="1.00" d=" M 53.54 164.06 C 53.62 160.32 53.05 155.76 56.39 153.16 C 54.92 156.23 54.24 159.62 54.34 163.02 C 54.35 204.00 54.31 244.99 54.37 285.97 C 54.29 290.41 55.93 294.83 58.90 298.13 C 55.14 295.90 53.19 291.32 53.59 287.03 C 53.42 246.04 53.50 205.05 53.54 164.06 Z" />
<path fill="#050203" opacity="1.00" d=" M 228.11 225.96 C 227.85 217.92 234.10 210.28 241.96 208.76 C 249.39 207.19 257.71 211.05 260.84 218.07 C 262.89 222.50 263.04 227.73 261.29 232.29 C 258.45 238.48 252.02 243.28 245.02 242.87 C 235.99 243.14 228.13 234.82 228.11 225.96 M 242.24 216.42 C 237.96 217.82 234.95 222.55 235.73 227.04 C 236.16 233.21 243.89 237.34 249.30 234.44 C 253.83 232.61 256.24 226.86 254.42 222.35 C 252.61 217.59 247.14 214.82 242.24 216.42 Z" />
<path fill="#050203" opacity="1.00" d=" M 290.77 305.68 L 290.87 305.66 C 291.65 305.47 293.22 305.09 294.01 304.90 C 287.93 309.11 280.01 307.75 273.04 308.16 C 270.88 308.18 270.28 310.77 269.01 312.06 C 268.75 311.98 268.23 311.84 267.97 311.76 C 268.80 309.85 269.58 307.49 271.94 307.06 C 278.13 305.88 284.67 307.72 290.77 305.68 Z" />
</g>
<g id="#010001ff">
<path fill="#010001" opacity="1.00" d=" M 122.25 57.64 C 128.46 52.55 137.12 51.31 144.82 53.00 C 138.99 54.32 132.59 52.99 127.21 56.16 C 117.52 61.87 112.96 72.65 106.11 81.06 C 95.85 96.41 84.68 111.12 74.48 126.51 C 72.86 128.58 71.66 131.47 68.90 132.21 C 63.47 133.74 57.87 135.72 54.05 140.09 C 48.00 145.72 44.66 153.80 44.31 162.00 C 44.22 202.00 44.24 242.01 44.27 282.02 C 43.91 289.14 46.05 296.30 49.65 302.39 C 53.50 306.62 57.32 311.45 63.00 313.23 C 73.77 317.85 85.73 314.42 96.98 316.20 C 101.34 317.09 105.64 315.28 110.03 315.55 C 127.67 315.90 145.32 315.57 162.97 315.60 C 174.34 315.76 185.71 315.77 197.07 315.60 C 214.39 315.56 231.71 315.90 249.02 315.58 C 250.60 315.62 251.91 314.63 253.26 313.96 C 253.58 311.46 253.02 309.14 251.11 307.42 C 203.72 307.34 156.33 307.36 108.95 307.41 C 107.60 307.45 106.32 307.07 105.12 306.50 L 106.13 306.49 C 153.76 306.31 201.39 306.47 249.02 306.41 C 252.25 305.94 254.64 308.93 255.07 311.85 C 254.94 314.98 252.24 317.76 249.00 317.39 C 203.36 317.49 157.70 317.42 112.05 317.43 C 108.70 317.51 105.25 317.04 101.97 317.97 C 99.34 319.09 96.73 317.32 94.04 317.44 C 84.88 317.05 75.51 318.46 66.51 316.19 C 55.35 313.02 46.12 303.48 43.74 292.07 C 42.37 286.81 43.00 281.34 42.86 275.98 C 43.04 237.96 42.73 199.95 42.98 161.93 C 42.75 146.58 55.06 132.66 70.09 130.21 C 81.56 113.34 93.43 96.74 105.12 80.01 C 110.19 73.20 114.33 65.67 120.18 59.47 C 120.84 58.83 121.53 58.22 122.25 57.64 Z" />
<path fill="#010001" opacity="1.00" d=" M 290.43 124.60 C 290.53 124.04 290.74 122.93 290.84 122.38 C 292.97 125.48 295.17 128.53 297.27 131.66 C 294.37 129.96 292.28 127.34 290.43 124.60 Z" />
<path fill="#010001" opacity="1.00" d=" M 299.14 133.23 C 305.89 136.78 311.49 142.55 314.45 149.62 C 317.54 155.97 316.99 163.21 317.13 170.06 C 317.10 208.37 317.05 246.68 317.15 284.99 C 317.15 292.09 314.79 299.08 310.63 304.83 C 310.57 301.17 313.01 298.20 313.99 294.82 C 316.61 287.47 315.44 279.58 315.69 271.96 C 315.98 256.97 315.70 241.98 315.68 226.99 C 315.99 205.66 315.57 184.34 315.72 163.02 C 315.81 151.00 308.54 138.83 297.25 134.32 C 297.87 133.95 298.50 133.59 299.14 133.23 Z" />
<path fill="#010001" opacity="1.00" d=" M 210.13 225.00 C 209.76 208.15 222.87 192.34 239.49 189.53 C 242.32 189.89 245.17 190.18 248.02 189.99 C 256.13 189.58 264.25 189.81 272.35 190.40 C 275.35 193.23 274.33 199.06 270.07 199.90 C 261.18 200.74 252.20 199.75 243.28 200.38 C 231.52 201.55 221.62 212.20 221.45 224.05 C 221.10 228.95 222.68 233.71 225.06 237.94 C 228.55 244.16 235.18 248.30 242.15 249.45 C 246.07 250.04 250.05 249.82 254.00 249.84 C 271.25 249.82 288.50 249.85 305.74 249.82 C 305.54 252.99 305.60 256.17 305.63 259.34 C 291.44 260.16 277.21 259.50 263.01 259.71 C 256.39 259.99 249.61 258.77 243.16 260.77 C 225.03 259.81 209.77 243.08 210.13 225.00 Z" />
<path fill="#010001" opacity="1.00" d=" M 307.93 305.60 C 308.39 305.72 309.33 305.95 309.80 306.07 C 305.34 310.95 299.69 314.97 293.19 316.54 C 286.91 318.45 280.29 317.60 273.83 317.76 C 270.42 318.12 268.25 314.78 267.97 311.76 C 268.23 311.84 268.75 311.98 269.01 312.06 C 270.13 313.39 271.15 314.81 272.34 316.09 C 284.86 317.87 299.40 315.96 307.93 305.60 Z" />
</g>
<g id="#fdd72cff">
<path fill="#fdd72c" opacity="1.00" d=" M 208.87 56.24 C 215.09 50.71 225.47 51.85 230.47 58.45 C 234.40 62.65 235.98 69.47 241.87 71.47 C 243.30 70.98 244.74 70.49 246.19 70.03 C 246.37 70.44 246.72 71.24 246.89 71.64 C 247.07 72.00 247.43 72.71 247.61 73.07 C 248.36 74.68 249.26 76.26 249.67 78.00 C 249.58 80.36 248.80 82.65 248.87 85.01 C 250.14 89.02 253.25 92.06 255.56 95.48 C 263.05 106.33 271.41 116.59 278.44 127.75 C 222.63 127.69 166.82 127.64 111.01 127.77 C 128.56 115.00 146.43 102.67 164.07 90.00 C 169.75 85.63 175.87 81.87 181.69 77.70 C 183.31 76.71 183.95 74.88 184.81 73.30 C 192.18 68.02 199.67 62.90 206.99 57.54 C 207.62 57.11 208.23 56.67 208.87 56.24 Z" />
</g>
<g id="#000000ff">
<path fill="#000000" opacity="1.00" d=" M 203.42 58.36 C 204.43 57.52 205.79 57.73 206.99 57.54 C 199.67 62.90 192.18 68.02 184.81 73.30 C 166.80 85.96 148.90 98.77 130.88 111.41 L 129.15 111.32 C 133.62 107.35 138.92 104.46 143.54 100.67 C 163.57 86.68 183.48 72.49 203.42 58.36 Z" />
<path fill="#000000" opacity="1.00" d=" M 252.84 78.85 L 254.67 77.94 C 254.16 80.14 251.98 81.66 251.95 83.95 C 252.87 87.77 255.98 90.47 258.14 93.61 C 264.04 101.80 269.64 110.20 275.91 118.11 C 278.33 121.19 280.34 124.55 282.35 127.90 C 281.90 127.76 281.00 127.46 280.55 127.31 C 270.99 113.71 260.92 100.47 251.48 86.78 C 249.38 84.30 250.38 80.66 252.84 78.85 Z" />
<path fill="#000000" opacity="1.00" d=" M 116.10 120.23 C 120.66 117.34 124.37 112.60 130.03 111.95 C 122.26 117.52 114.64 123.32 106.52 128.38 L 106.33 128.50 C 108.10 124.29 112.77 122.88 116.10 120.23 Z" />
<path fill="#000000" opacity="1.00" d=" M 289.49 199.79 C 286.50 197.15 285.93 191.37 290.15 189.63 C 295.24 188.60 300.53 189.42 305.70 189.15 C 305.12 195.13 306.59 201.04 306.49 207.01 C 306.43 216.67 306.48 226.33 306.46 235.99 C 306.40 240.46 306.91 245.00 305.77 249.39 C 305.65 232.88 305.83 216.38 305.66 199.87 C 300.64 199.93 295.62 199.85 290.61 199.95 C 290.33 199.91 289.77 199.83 289.49 199.79 Z" />
</g>
<g id="#289ffbff">
<path fill="#289ffb" opacity="1.00" d=" M 125.28 70.28 C 129.54 63.88 138.96 61.47 145.49 65.79 C 150.65 69.31 155.89 72.73 160.96 76.39 C 153.69 82.11 145.90 87.17 138.38 92.57 C 121.48 104.65 104.36 116.43 87.53 128.59 C 86.58 129.43 85.35 129.66 84.12 129.70 C 97.96 109.97 111.47 90.02 125.28 70.28 Z" />
</g>
<g id="#feffffff">
</g>
<g id="#ecdd5cff">
<path fill="#ecdd5c" opacity="1.00" d=" M 247.61 73.07 L 248.39 73.52 C 250.08 75.11 251.43 77.02 252.84 78.85 C 250.38 80.66 249.38 84.30 251.48 86.78 C 260.92 100.47 270.99 113.71 280.55 127.31 C 280.89 127.84 281.59 128.89 281.93 129.42 C 279.95 129.24 277.96 129.13 275.97 129.07 C 220.98 129.14 165.99 129.05 110.99 129.12 C 109.46 129.16 107.95 128.90 106.52 128.38 C 114.64 123.32 122.26 117.52 130.03 111.95 C 130.25 111.82 130.67 111.55 130.88 111.41 C 148.90 98.77 166.80 85.96 184.81 73.30 C 183.95 74.88 183.31 76.71 181.69 77.70 C 175.87 81.87 169.75 85.63 164.07 90.00 C 146.43 102.67 128.56 115.00 111.01 127.77 C 166.82 127.64 222.63 127.69 278.44 127.75 C 271.41 116.59 263.05 106.33 255.56 95.48 C 253.25 92.06 250.14 89.02 248.87 85.01 C 248.80 82.65 249.58 80.36 249.67 78.00 C 249.26 76.26 248.36 74.68 247.61 73.07 Z" />
</g>
<g id="#706b12ff">
<path fill="#706b12" opacity="1.00" d=" M 106.33 128.50 L 106.52 128.38 C 107.95 128.90 109.46 129.16 110.99 129.12 C 165.99 129.05 220.98 129.14 275.97 129.07 C 277.96 129.13 279.95 129.24 281.93 129.42 L 280.38 129.81 C 222.50 129.98 164.62 129.69 106.74 129.95 L 105.83 129.03 C 105.95 128.90 106.20 128.63 106.33 128.50 Z" />
</g>
<g id="#14140bff">
<path fill="#14140b" opacity="1.00" d=" M 106.74 129.95 C 164.62 129.69 222.50 129.98 280.38 129.81 C 280.92 130.03 282.02 130.48 282.57 130.71 C 276.42 131.70 270.19 130.87 264.01 131.02 C 212.00 131.12 159.99 130.84 107.99 131.17 C 107.68 130.86 107.05 130.25 106.74 129.95 Z" />
</g>
<g id="#db792aff">
<path fill="#db792a" opacity="1.00" d=" M 60.30 148.28 C 63.14 144.14 68.31 142.18 73.11 141.52 C 80.16 141.26 87.22 141.29 94.26 141.49 C 94.05 196.41 94.12 251.33 94.23 306.25 C 86.21 305.97 78.01 307.06 70.12 305.49 C 77.66 304.41 85.29 305.60 92.86 304.83 C 93.20 299.89 93.14 294.94 93.10 290.00 C 93.10 245.65 93.09 201.31 93.10 156.96 C 93.16 152.29 93.17 147.60 92.84 142.93 C 84.88 142.69 76.75 142.01 68.90 143.68 C 65.85 144.86 63.22 146.84 60.30 148.28 Z" />
</g>
<g id="#9b5f37ff">
<path fill="#9b5f37" opacity="1.00" d=" M 105.00 141.76 C 105.24 141.52 105.70 141.06 105.93 140.82 C 164.61 140.70 223.30 140.84 281.98 140.75 C 284.14 140.75 286.28 141.08 288.37 141.65 C 280.92 142.30 273.44 141.89 265.98 142.00 C 212.68 142.08 159.38 141.84 106.08 142.12 C 105.79 146.42 105.80 150.72 105.86 155.02 C 105.87 198.35 105.85 241.68 105.87 285.00 C 105.92 292.17 105.64 299.34 106.13 306.49 L 105.12 306.50 L 104.80 305.97 C 105.30 277.66 104.88 249.34 105.01 221.03 C 105.01 194.60 105.03 168.18 105.00 141.76 Z" />
</g>
<g id="#2b0e06ff">
<path fill="#2b0e06" opacity="1.00" d=" M 103.89 143.10 C 104.17 142.76 104.72 142.09 105.00 141.76 C 105.03 168.18 105.01 194.60 105.01 221.03 C 104.88 249.34 105.30 277.66 104.80 305.97 C 103.92 304.42 103.67 302.67 103.73 300.92 C 103.94 248.32 103.62 195.70 103.89 143.10 Z" />
</g>
<g id="#e87d26ff">
<path fill="#e87d26" opacity="1.00" d=" M 106.08 142.12 C 159.38 141.84 212.68 142.08 265.98 142.00 C 273.44 141.89 280.92 142.30 288.37 141.65 C 288.99 141.82 290.23 142.17 290.85 142.35 C 286.28 143.21 281.64 142.94 277.02 142.91 C 227.67 142.78 178.33 142.90 128.98 142.85 C 121.72 142.97 114.45 142.57 107.19 143.13 C 107.03 145.41 106.87 147.69 106.84 149.99 C 106.92 196.34 106.86 242.69 106.88 289.04 C 106.84 294.29 106.69 299.56 107.21 304.80 C 150.13 305.18 193.07 304.89 235.99 304.95 C 241.52 305.12 247.14 304.36 252.61 305.42 C 254.78 306.51 255.85 308.99 257.35 310.82 C 260.09 310.99 262.85 311.00 265.60 310.86 C 267.57 308.47 269.27 304.72 272.96 305.11 C 278.90 304.99 284.90 304.56 290.77 305.68 C 284.67 307.72 278.13 305.88 271.94 307.06 C 269.58 307.49 268.80 309.85 267.97 311.76 C 263.68 312.18 259.36 312.24 255.07 311.85 C 254.64 308.93 252.25 305.94 249.02 306.41 C 201.39 306.47 153.76 306.31 106.13 306.49 C 105.64 299.34 105.92 292.17 105.87 285.00 C 105.85 241.68 105.87 198.35 105.86 155.02 C 105.80 150.72 105.79 146.42 106.08 142.12 Z" />
</g>
<g id="#ff7103ff">
<path fill="#ff7103" opacity="1.00" d=" M 68.90 143.68 C 76.75 142.01 84.88 142.69 92.84 142.93 C 93.17 147.60 93.16 152.29 93.10 156.96 C 93.09 201.31 93.10 245.65 93.10 290.00 C 93.14 294.94 93.20 299.89 92.86 304.83 C 85.29 305.60 77.66 304.41 70.12 305.49 C 69.91 305.52 69.51 305.57 69.31 305.59 L 69.20 304.92 C 68.26 299.67 67.82 294.34 67.81 289.01 C 67.87 244.65 67.81 200.29 67.83 155.93 C 67.89 151.82 68.42 147.75 68.90 143.68 Z" />
<path fill="#ff7103" opacity="1.00" d=" M 107.19 143.13 C 114.45 142.57 121.72 142.97 128.98 142.85 C 178.33 142.90 227.67 142.78 277.02 142.91 C 281.64 142.94 286.28 143.21 290.85 142.35 L 290.89 142.36 C 295.10 146.38 300.57 149.51 302.85 155.15 C 305.48 162.12 304.23 169.70 304.51 176.97 C 304.41 180.53 305.25 184.36 303.40 187.64 C 299.16 187.59 294.88 187.18 290.67 187.83 C 285.64 188.81 283.73 195.82 287.26 199.44 C 287.82 199.53 288.94 199.71 289.49 199.79 C 289.77 199.83 290.33 199.91 290.61 199.95 C 294.50 201.37 298.67 200.72 302.69 201.28 C 305.16 203.46 304.43 207.07 304.61 210.00 C 304.34 222.78 304.97 235.57 304.30 248.34 C 302.21 248.54 300.13 248.78 298.03 248.80 C 280.69 248.66 263.35 248.81 246.01 248.73 C 237.40 248.49 229.66 243.27 225.23 236.04 C 225.19 236.52 225.10 237.46 225.06 237.94 C 222.68 233.71 221.10 228.95 221.45 224.05 C 221.62 212.20 231.52 201.55 243.28 200.38 C 252.20 199.75 261.18 200.74 270.07 199.90 C 274.33 199.06 275.35 193.23 272.35 190.40 L 271.59 189.47 C 266.13 188.34 260.53 189.06 255.01 188.87 C 249.84 189.01 244.58 188.35 239.49 189.53 C 222.87 192.34 209.76 208.15 210.13 225.00 C 209.77 243.08 225.03 259.81 243.16 260.77 L 243.96 260.81 C 242.35 261.02 240.75 261.28 239.16 261.57 C 241.40 262.02 243.66 262.36 245.95 262.36 C 260.62 262.30 275.29 262.32 289.96 262.32 C 294.90 262.36 299.87 261.95 304.75 262.92 C 304.03 272.27 305.76 281.85 303.49 291.04 C 301.77 297.69 295.96 301.67 290.87 305.66 L 290.77 305.68 C 284.90 304.56 278.90 304.99 272.96 305.11 C 269.27 304.72 267.57 308.47 265.60 310.86 C 262.85 311.00 260.09 310.99 257.35 310.82 C 255.85 308.99 254.78 306.51 252.61 305.42 C 247.14 304.36 241.52 305.12 235.99 304.95 C 193.07 304.89 150.13 305.18 107.21 304.80 C 106.69 299.56 106.84 294.29 106.88 289.04 C 106.86 242.69 106.92 196.34 106.84 149.99 C 106.87 147.69 107.03 145.41 107.19 143.13 M 159.66 151.17 C 159.72 152.86 158.75 155.86 161.47 155.61 C 166.74 155.87 172.06 156.26 177.31 155.47 C 178.71 153.22 179.02 149.48 175.78 148.72 C 176.40 148.73 177.65 148.76 178.28 148.77 C 177.32 148.13 176.31 147.46 175.09 147.62 C 171.36 147.58 167.63 147.48 163.90 147.56 C 161.87 147.48 159.62 148.98 159.66 151.17 M 202.40 147.70 C 199.47 149.29 198.02 154.73 201.43 156.56 C 203.29 157.98 205.85 157.30 208.02 157.49 C 226.69 157.35 245.37 157.46 264.04 157.44 C 267.46 157.37 270.91 157.72 274.31 157.18 C 277.89 154.74 276.69 147.63 272.00 147.61 C 248.81 147.64 225.58 147.43 202.40 147.70 M 228.11 225.96 C 228.13 234.82 235.99 243.14 245.02 242.87 C 252.02 243.28 258.45 238.48 261.29 232.29 C 263.04 227.73 262.89 222.50 260.84 218.07 C 257.71 211.05 249.39 207.19 241.96 208.76 C 234.10 210.28 227.85 217.92 228.11 225.96 Z" />
</g>
<g id="#d17222ff">
<path fill="#d17222" opacity="1.00" d=" M 290.89 142.36 C 299.56 144.42 305.78 153.17 305.71 161.96 C 305.78 170.81 305.76 179.67 305.75 188.52 L 305.70 189.15 C 300.53 189.42 295.24 188.60 290.15 189.63 C 285.93 191.37 286.50 197.15 289.49 199.79 C 288.94 199.71 287.82 199.53 287.26 199.44 C 283.73 195.82 285.64 188.81 290.67 187.83 C 294.88 187.18 299.16 187.59 303.40 187.64 C 305.25 184.36 304.41 180.53 304.51 176.97 C 304.23 169.70 305.48 162.12 302.85 155.15 C 300.57 149.51 295.10 146.38 290.89 142.36 Z" />
</g>
<g id="#f3490cff">
<path fill="#f3490c" opacity="1.00" d=" M 60.30 148.28 C 63.22 146.84 65.85 144.86 68.90 143.68 C 68.42 147.75 67.89 151.82 67.83 155.93 C 67.81 200.29 67.87 244.65 67.81 289.01 C 67.82 294.34 68.26 299.67 69.20 304.92 C 64.81 304.46 61.82 301.06 58.90 298.13 C 55.93 294.83 54.29 290.41 54.37 285.97 C 54.31 244.99 54.35 204.00 54.34 163.02 C 54.24 159.62 54.92 156.23 56.39 153.16 C 57.38 151.60 58.53 150.15 59.60 148.65 C 59.78 148.55 60.12 148.37 60.30 148.28 Z" />
</g>
<g id="#ec823cff">
<path fill="#ec823c" opacity="1.00" d=" M 159.66 151.17 C 159.62 148.98 161.87 147.48 163.90 147.56 C 167.63 147.48 171.36 147.58 175.09 147.62 C 176.31 147.46 177.32 148.13 178.28 148.77 C 177.65 148.76 176.40 148.73 175.78 148.72 C 170.96 148.64 166.01 148.08 161.33 149.58 C 161.39 151.59 161.43 153.60 161.47 155.61 C 158.75 155.86 159.72 152.86 159.66 151.17 Z" />
</g>
<g id="#ea7b2eff">
<path fill="#ea7b2e" opacity="1.00" d=" M 202.40 147.70 C 225.58 147.43 248.81 147.64 272.00 147.61 C 276.69 147.63 277.89 154.74 274.31 157.18 C 270.91 157.72 267.46 157.37 264.04 157.44 C 245.37 157.46 226.69 157.35 208.02 157.49 C 205.85 157.30 203.29 157.98 201.43 156.56 C 198.02 154.73 199.47 149.29 202.40 147.70 M 201.64 155.19 C 203.37 155.75 205.10 156.41 206.96 156.30 C 225.96 156.27 244.97 156.29 263.97 156.28 C 267.43 156.21 271.08 156.82 274.29 155.15 C 274.81 153.17 274.82 151.04 273.43 149.41 C 270.97 149.24 268.50 149.11 266.04 149.16 C 245.33 149.30 224.61 148.97 203.90 149.32 C 200.68 149.27 201.41 153.08 201.64 155.19 Z" />
</g>
<g id="#fffefcff">
<path fill="#fffefc" opacity="1.00" d=" M 161.33 149.58 C 166.01 148.08 170.96 148.64 175.78 148.72 C 179.02 149.48 178.71 153.22 177.31 155.47 C 172.06 156.26 166.74 155.87 161.47 155.61 C 161.43 153.60 161.39 151.59 161.33 149.58 Z" />
<path fill="#fffefc" opacity="1.00" d=" M 201.64 155.19 C 201.41 153.08 200.68 149.27 203.90 149.32 C 224.61 148.97 245.33 149.30 266.04 149.16 C 268.50 149.11 270.97 149.24 273.43 149.41 C 274.82 151.04 274.81 153.17 274.29 155.15 C 271.08 156.82 267.43 156.21 263.97 156.28 C 244.97 156.29 225.96 156.27 206.96 156.30 C 205.10 156.41 203.37 155.75 201.64 155.19 Z" />
</g>
<g id="#360600ff">
<path fill="#360600" opacity="1.00" d=" M 239.49 189.53 C 244.58 188.35 249.84 189.01 255.01 188.87 C 260.53 189.06 266.13 188.34 271.59 189.47 L 272.35 190.40 C 264.25 189.81 256.13 189.58 248.02 189.99 C 245.17 190.18 242.32 189.89 239.49 189.53 Z" />
</g>
<g id="#c86917ff">
<path fill="#c86917" opacity="1.00" d=" M 290.61 199.95 C 295.62 199.85 300.64 199.93 305.66 199.87 C 305.83 216.38 305.65 232.88 305.77 249.39 L 305.74 249.82 C 288.50 249.85 271.25 249.82 254.00 249.84 C 250.05 249.82 246.07 250.04 242.15 249.45 C 235.18 248.30 228.55 244.16 225.06 237.94 C 225.10 237.46 225.19 236.52 225.23 236.04 C 229.66 243.27 237.40 248.49 246.01 248.73 C 263.35 248.81 280.69 248.66 298.03 248.80 C 300.13 248.78 302.21 248.54 304.30 248.34 C 304.97 235.57 304.34 222.78 304.61 210.00 C 304.43 207.07 305.16 203.46 302.69 201.28 C 298.67 200.72 294.50 201.37 290.61 199.95 Z" />
</g>
<g id="#fc7203ff">
<path fill="#fc7203" opacity="1.00" d=" M 242.24 216.42 C 247.14 214.82 252.61 217.59 254.42 222.35 C 256.24 226.86 253.83 232.61 249.30 234.44 C 243.89 237.34 236.16 233.21 235.73 227.04 C 234.95 222.55 237.96 217.82 242.24 216.42 Z" />
</g>
<g id="#280100ff">
<path fill="#280100" opacity="1.00" d=" M 263.01 259.71 C 277.21 259.50 291.44 260.16 305.63 259.34 C 305.63 259.65 305.64 260.25 305.64 260.55 L 305.40 261.17 C 284.93 260.67 264.43 261.35 243.96 260.81 L 243.16 260.77 C 249.61 258.77 256.39 259.99 263.01 259.71 Z" />
</g>
<g id="#da873cff">
<path fill="#da873c" opacity="1.00" d=" M 239.16 261.57 C 240.75 261.28 242.35 261.02 243.96 260.81 C 264.43 261.35 284.93 260.67 305.40 261.17 C 305.24 261.61 304.91 262.48 304.75 262.92 C 299.87 261.95 294.90 262.36 289.96 262.32 C 275.29 262.32 260.62 262.30 245.95 262.36 C 243.66 262.36 241.40 262.02 239.16 261.57 Z" />
</g>
<g id="#c76c21ff">
<path fill="#c76c21" opacity="1.00" d=" M 305.40 261.17 L 305.64 260.55 L 305.71 261.47 C 305.78 269.32 305.75 277.18 305.73 285.04 C 305.81 289.59 304.17 293.93 302.15 297.93 C 299.62 300.46 297.00 302.92 294.01 304.90 C 293.22 305.09 291.65 305.47 290.87 305.66 C 295.96 301.67 301.77 297.69 303.49 291.04 C 305.76 281.85 304.03 272.27 304.75 262.92 C 304.91 262.48 305.24 261.61 305.40 261.17 Z" />
</g>
<g id="#2c1711ff">
<path fill="#2c1711" opacity="1.00" d=" M 305.71 261.47 C 307.65 265.72 306.86 270.45 306.93 274.97 C 306.87 279.36 307.09 283.74 307.02 288.13 C 306.91 291.85 305.63 296.03 302.15 297.93 C 304.17 293.93 305.81 289.59 305.73 285.04 C 305.75 277.18 305.78 269.32 305.71 261.47 Z" />
</g>
<g id="#ebebedff">
<path fill="#ebebed" opacity="1.00" d=" M 306.83 311.95 C 308.26 309.99 309.95 308.23 311.92 306.82 C 311.98 308.56 312.02 310.30 312.06 312.04 C 310.31 312.01 308.57 311.99 306.83 311.95 Z" />
</g>
</svg>
